<mxfile host="app.diagrams.net" modified="2021-09-16T09:54:29.282Z" agent="5.0 (Windows NT 10.0; Win64; x64) AppleWebKit/537.36 (KHTML, like Gecko) Chrome/93.0.4577.82 Safari/537.36" etag="ChUQ3LIjyhvJvsD27zaz" version="15.2.7" type="github">
  <diagram id="SRR43eI5SDNKgVkLlrz4" name="Page-1">
    <mxGraphModel dx="1038" dy="547" grid="1" gridSize="10" guides="1" tooltips="1" connect="1" arrows="1" fold="1" page="1" pageScale="1" pageWidth="827" pageHeight="1169" math="0" shadow="0">
      <root>
        <mxCell id="0" />
        <mxCell id="1" parent="0" />
        <mxCell id="2DV5LwTjrlr1CRbHWVbb-1" value="début" style="ellipse;whiteSpace=wrap;html=1;" vertex="1" parent="1">
          <mxGeometry x="150" y="40" width="120" height="80" as="geometry" />
        </mxCell>
        <mxCell id="2DV5LwTjrlr1CRbHWVbb-2" value="" style="endArrow=none;html=1;" edge="1" parent="1">
          <mxGeometry width="50" height="50" relative="1" as="geometry">
            <mxPoint x="210" y="160" as="sourcePoint" />
            <mxPoint x="210" y="160" as="targetPoint" />
            <Array as="points">
              <mxPoint x="210" y="120" />
            </Array>
          </mxGeometry>
        </mxCell>
        <mxCell id="2DV5LwTjrlr1CRbHWVbb-3" value="récupérer input dans la barre&lt;br&gt;&amp;nbsp;de recherche principale" style="shape=parallelogram;perimeter=parallelogramPerimeter;whiteSpace=wrap;html=1;fixedSize=1;" vertex="1" parent="1">
          <mxGeometry x="110" y="160" width="180" height="60" as="geometry" />
        </mxCell>
        <mxCell id="2DV5LwTjrlr1CRbHWVbb-4" value="" style="endArrow=none;html=1;exitX=0.5;exitY=1;exitDx=0;exitDy=0;" edge="1" parent="1" source="2DV5LwTjrlr1CRbHWVbb-3">
          <mxGeometry width="50" height="50" relative="1" as="geometry">
            <mxPoint x="390" y="290" as="sourcePoint" />
            <mxPoint x="200" y="250" as="targetPoint" />
          </mxGeometry>
        </mxCell>
        <mxCell id="2DV5LwTjrlr1CRbHWVbb-5" value="créer un tableau contenant les différents tags&lt;br&gt;" style="rounded=1;whiteSpace=wrap;html=1;" vertex="1" parent="1">
          <mxGeometry x="40" y="250" width="270" height="60" as="geometry" />
        </mxCell>
        <mxCell id="2DV5LwTjrlr1CRbHWVbb-6" value="" style="endArrow=none;html=1;" edge="1" parent="1">
          <mxGeometry width="50" height="50" relative="1" as="geometry">
            <mxPoint x="200" y="350" as="sourcePoint" />
            <mxPoint x="200" y="310" as="targetPoint" />
            <Array as="points" />
          </mxGeometry>
        </mxCell>
        <mxCell id="2DV5LwTjrlr1CRbHWVbb-7" value="chercher le input dans le tableau des tags, s&#39;il est incluts par une boucle?" style="rounded=1;whiteSpace=wrap;html=1;" vertex="1" parent="1">
          <mxGeometry x="50" y="350" width="270" height="60" as="geometry" />
        </mxCell>
        <mxCell id="2DV5LwTjrlr1CRbHWVbb-9" value="" style="endArrow=none;html=1;" edge="1" parent="1">
          <mxGeometry width="50" height="50" relative="1" as="geometry">
            <mxPoint x="190" y="440" as="sourcePoint" />
            <mxPoint x="190" y="470" as="targetPoint" />
            <Array as="points">
              <mxPoint x="190" y="410" />
            </Array>
          </mxGeometry>
        </mxCell>
        <mxCell id="2DV5LwTjrlr1CRbHWVbb-11" value="ajouter la recette dans un tableau filteredRecipes" style="rounded=1;whiteSpace=wrap;html=1;" vertex="1" parent="1">
          <mxGeometry x="50" y="470" width="270" height="60" as="geometry" />
        </mxCell>
        <mxCell id="2DV5LwTjrlr1CRbHWVbb-17" value="oui" style="text;html=1;strokeColor=none;fillColor=none;align=center;verticalAlign=middle;whiteSpace=wrap;rounded=0;" vertex="1" parent="1">
          <mxGeometry x="210" y="430" width="40" height="20" as="geometry" />
        </mxCell>
        <mxCell id="2DV5LwTjrlr1CRbHWVbb-18" value="" style="endArrow=none;html=1;exitX=0.5;exitY=1;exitDx=0;exitDy=0;" edge="1" parent="1" source="2DV5LwTjrlr1CRbHWVbb-11">
          <mxGeometry width="50" height="50" relative="1" as="geometry">
            <mxPoint x="200" y="540" as="sourcePoint" />
            <mxPoint x="185" y="590" as="targetPoint" />
          </mxGeometry>
        </mxCell>
        <mxCell id="2DV5LwTjrlr1CRbHWVbb-19" value="affichage de filteredRecipes" style="rounded=1;whiteSpace=wrap;html=1;" vertex="1" parent="1">
          <mxGeometry x="50" y="590" width="270" height="60" as="geometry" />
        </mxCell>
        <mxCell id="2DV5LwTjrlr1CRbHWVbb-20" value="" style="endArrow=none;html=1;exitX=0.474;exitY=1.043;exitDx=0;exitDy=0;exitPerimeter=0;entryX=0.486;entryY=0;entryDx=0;entryDy=0;entryPerimeter=0;" edge="1" parent="1" source="2DV5LwTjrlr1CRbHWVbb-19" target="2DV5LwTjrlr1CRbHWVbb-21">
          <mxGeometry width="50" height="50" relative="1" as="geometry">
            <mxPoint x="180" y="700" as="sourcePoint" />
            <mxPoint x="180" y="650" as="targetPoint" />
          </mxGeometry>
        </mxCell>
        <mxCell id="2DV5LwTjrlr1CRbHWVbb-21" value="fin" style="ellipse;whiteSpace=wrap;html=1;" vertex="1" parent="1">
          <mxGeometry x="150" y="720" width="95" height="60" as="geometry" />
        </mxCell>
        <mxCell id="2DV5LwTjrlr1CRbHWVbb-22" value="algorythme 1" style="shape=document;whiteSpace=wrap;html=1;boundedLbl=1;fontStyle=1" vertex="1" parent="1">
          <mxGeometry x="580" y="90" width="120" height="80" as="geometry" />
        </mxCell>
      </root>
    </mxGraphModel>
  </diagram>
</mxfile>
